<svg xmlns="http://www.w3.org/2000/svg" width="265" height="465" fill="none">
  <mask id="a" width="265" height="465" x="0" y="0" maskUnits="userSpaceOnUse">
    <path fill="#F4F4F4" d="M0 4a4 4 0 014-4h261v465H4a4 4 0 01-4-4V4z"/>
  </mask>
  <g mask="url(#a)">
    <path fill="#2A2A2A" d="M21.2 411.99c-1 3.91-3.56 13.18-3.7 13.9.35-1.08.7-2.16 1.04-3.16l2.65-10.74z"/>
    <path fill="#FF597C" d="M278.18 64.57A26.7 26.7 0 00240.19 75C193.7 146.5 98.66 206.53 58.56 229.23c-19.03 10.76-29.23 10.92-34.14 6.9l-3.56-6.35c-1.05-5.16.66-11.33 2.82-14.7 4.02-6.22-66.15 36.04-83.77 40.7-.83 39.18 15.41 73.38 34.32 102.3.09.1.08.19.17.28 12.82 20.19 29.14 37.92 47.14 52.53-.11.36-.24.82-.26 1.19.13-.55.25-1 .36-1.27 8.11 6.08 16.53 11.82 22.52 15 5.98 3.26-3.32 10.88-26.58.18v-.1c-6.26 19.2-20.28 47.88-36.42 76.24-.51.8-.93 1.6-1.36 2.4a22.17 22.17 0 00-1.79 4.7c-7.52 26.88 29.75 60.81 83.37 75.83 48.16 13.46 93 7.09 107.07-13.82a23.13 23.13 0 003.22-6.63c10.43-23.36 31.92-86.52 35.72-113.2-29.33 2.6-31.33-9.1-25.68-9.19 5.66-.09 16.36-.95 29.26-8.6l-3.46 17.44c.52-2.28.95-4.57 1.47-6.85l1.22-5.93c.3-1.55.58-3.1.87-4.66 45.12-31.52 93.08-94.68 78.13-158.22 14.23-26.16 19.82-61.7-14.19-98.82l.92-57.12c4.28-6 8.25-12.78 12.06-20.02 6.01-12.55 1.74-27.64-9.81-34.88z"/>
    <path fill="#FFACBE" d="M21.46 410.71c-.63 2.64-4.06 15.18-4.06 15.18 23.17 10.7 32.48 2.99 26.58-.18-5.99-3.26-14.4-9-22.52-15zM181.62 442.23c-5.65.09-3.65 11.78 25.68 9.2l.12-.46 3.47-17.44c-12.92 7.75-23.71 8.6-29.27 8.7z"/>
    <path fill="#fff" d="M76.28 27.07c-5.56 1.3-9.88 5-11.78 9.77C32.1 121.3 22.47 217 16.24 306.44c1.06 5.07 4.85 9.48 10.27 11.6 51.63 20.52 117.2 25.87 172.06 19.44 7-.83 12.68-5.26 14.38-11.35 24.51-87.08 37.54-189.25 29-279.67-.48-5.4-4.16-10.08-9.46-12.56C185 17.11 125.02 15.75 76.28 27.07z"/>
    <path stroke="#66ECF4" stroke-width="3" d="M75.93 25.61h0c49-11.37 109.27-10.02 157.06 6.88l.06.02.07.03c5.7 2.67 9.78 7.77 10.32 13.79 8.56 90.63-4.5 192.99-29.05 280.2-1.89 6.77-8.13 11.55-15.64 12.44h0c-55.05 6.45-120.88 1.1-172.8-19.54-5.84-2.28-10-7.08-11.17-12.69l-.05-.2.02-.2C20.98 216.88 30.6 120.97 63.1 36.3h0l.01-.01C65.2 31.02 69.93 27 75.93 25.6z"/>
    <path fill="#66ECF4" d="M58.86 254.53l128.04 15.22-1.1 9.17L57.78 263.7l1.1-9.17zM78.25 279.04l85.79 10.2-1.1 9.17-85.78-10.2 1.1-9.17z"/>
    <path fill="#CCF9FB" d="M135.35 212.34c-38.7-3.12-67.44-38.3-64.19-78.55 3.26-40.26 37.26-70.36 75.96-67.23 38.7 3.13 67.43 38.3 64.18 78.56-3.25 40.25-37.26 70.35-75.95 67.22z"/>
    <path fill="#FFACBE" d="M135.3 212.26C96.57 209.14 67.84 174 71.07 133.7l.1-1.48 14.34-9.41 53.95 89.54c-1.3.1-2.78.1-4.16-.1z"/>
    <path fill="#FF597C" d="M92.93 108.77c2.08-.7 4.25-1.29 6.33-1.9 1.04-.3 2.08-.5 3.2-.8.58-.14 1.14-.2 1.6-.35.57-.15 1.13-.2 1.7-.35 1.5-.18 2.93.47 3.78 1.73a4.14 4.14 0 01-1.1 5.48l-.3.16c-.38.25-.87.6-1.35.84l-1.35.83-2.8 1.58-5.5 3.24-10.9 6.5c-5.11 3.08-10.23 6.17-15.26 9.26l.08-1.2a77.9 77.9 0 013.47-17.35c2.01-.98 4.02-1.96 6.03-2.84 4.1-1.86 8.2-3.53 12.37-4.83zM73.43 159.67c1.46.28 2.92.66 4.38.94.91-3.92 1.92-7.92 2.92-11.84 1.23-4.54 2.46-9.09 3.87-13.62.12-.46.6-.6.96-.5.36.12.52.5.5.87-.6 4.68-1.46 9.34-2.31 13.91-.73 4.03-1.64 7.95-2.47 11.97l4.84 1.15c2.19.6 4.47 1.13 6.56 1.73 4.37 1.21 8.74 2.43 13.1 3.92.53.22.77.79.64 1.34-.12.45-.6.79-1.06.67a318 318 0 01-13.38-2.37c-2.29-.43-4.48-.94-6.67-1.46l-4.74-1.15-1.16 4.92-.77 3.2a98 98 0 01-2.5-5.54l.78-3.47c-.73-.23-1.55-.38-2.28-.6-.37-1.33-.84-2.75-1.21-4.07z"/>
    <path fill="#fff" d="M114.32 121.64c3.26-.24 5.1-2.8 6.05-5.98 1.07-3.54.4-7.38-2.72-9.34-.35-.3-.7-.42-1.16-.54-.45-.22-.9-.52-1.35-.74-1.07-.53-2.05-1.24-3.12-1.78l-2.22-1.44v-.1c-.26-.2-.53-.4-.9-.51a23.17 23.17 0 01-7.78-9.77l-2.5 1.5-2.37-.8-3.74 1.97-1.49-1.4c-.32 3.5 0 7.13.88 10.52a25.9 25.9 0 008.48 13.33 24.93 24.93 0 004.45 2.8c.82.32 1.62.75 2.44.98 1.63.58 3.28.96 4.93 1.16.82.24 1.47.2 2.12.14z"/>
    <path fill="#66ECF4" d="M91.11 92.8l1.58 1.4 3.74-1.96 2.36.8 2.42-1.5c-.34-.58-.58-1.15-.82-1.73l-2.67-1.56-2.96 1.28-1.67-1.4s-.91 1.14-1.73 2.29c-.05.74-.1 1.57-.25 2.39zM104.91 119.54c.82.33 1.62.76 2.44 1 2.26.88 4.65 1.23 6.97 1.2 3.26-.25 5.1-2.81 6.05-5.99 1.07-3.54.4-7.37-2.63-9.33-.35-.3-.71-.42-1.17-.54-.45-.22-.89-.52-1.34-.74-1.08-.53-2.05-1.25-3.13-1.78-.8-.52-1.51-.93-2.31-1.45a33.56 33.56 0 0115.93-15.23c2.1-.97 4.62-2.45 6.87-2.95 23.18-4.2 22.68 34.17 20.61 52.72-.65 5.7-1.43 8.98-1.53 9.16.02-.28-.66-5.42-13.02-6.42-16.4-1.36-17.2 24.66-18.16 36.35-4.94.41-9.9-.29-14.77-.98-1.1-.16-2.22-.03-3.32-.3.2-.16-.91-32.37 2.51-54.72z"/>
    <path fill="#fff" d="M164.21 160.57s.45-5.33.03-7.4c-13.1.34-30.89-2.5-30.89-2.5s-4.65 14.22 9.95 16.38a108.15 108.15 0 0024.42.79c.44-2.47.7-4.95.59-7.46 0 0-1.6.18-4.1.2z"/>
    <path fill="#66ECF4" d="M155.82 85.71c9.22 3.67 16.44 10.8 19.85 19.45v.1c-.01.09.08.1.07.19 2.17 5.14 2.8 12.3 2.63 19.05-.38 9.97-2.64 18.98-5.34 19.17-.1 0-.66.07-.84.06-1.06-2.2-2.21-1.63-4.52-1.7-3.78-.34-10.13.26-10.83 2.53.2-1.75-4.5-45.36-4.18-48.86 1.39-13.97-2.96-11.3 3.16-9.99z"/>
    <path fill="#FF839D" d="M120.9 176.42c.96-11.78 1.28-39.06 17.78-37.69 12.36 1 12.98 6.97 12.96 7.34 0 0 2.36 2.17 9.2.96l.41-1.92c.7-2.27 1.71-3.48 5.5-3.13 2.4.06 4.15.27 6.1 1.68h.18l-.68 8.75c-2.63.57-5.43.85-8.12.85-13 .35-30.88-2.5-30.88-2.5s-4.65 14.22 9.94 16.39a108.15 108.15 0 0024.42.78c2.05-.14 3.18-.34 3.18-.34a42.84 42.84 0 01-5.67 14.24s-.69.51-3.3.9c-.06.73-.2 1.55-.25 2.29-.03.37-.05.74-.17 1.1-.03.46-.06.92-.18 1.38-.16 1-.32 2.01-.39 3.02-5.49 1.68-16.1 2.27-28.08 1.29-1.94-.13-3.78-.34-5.62-.56l-1.84-.21c-8.72-1.23-15.93-3-19.97-5.03.03-1.75.14-3.5.17-5.35l.08-1.1.02-.38.25-3.75c4.95.79 10.01 1.4 14.95.99z"/>
    <path fill="#fff" d="M175.75 105.35c2.07 5.14 2.8 12.31 2.54 19.05a25.82 25.82 0 0012-13.36 27.81 27.81 0 001.54-16.19c-.4-2.25-1.1-4.42-2.17-6.43a1.81 1.81 0 00-2.45-.72c-.68.5-1.2 1.3-1.35 2.13-1.9 4.87-4.26 9.8-7.95 13.63-.69.7-1.38 1.39-2.16 1.9zM138.31 135.08c-3.1-.25-5.25-4.99-4.8-10.58.45-5.6 3.34-9.92 6.44-9.67 3.1.25 5.26 4.99 4.8 10.58-.44 5.59-3.33 9.92-6.44 9.67zM169.39 137.6c-3.1-.25-5.26-4.99-4.8-10.58.44-5.6 3.33-9.92 6.43-9.67 3.11.25 5.26 4.99 4.81 10.58-.45 5.59-3.34 9.92-6.44 9.67z"/>
    <path fill="#66ECF4" d="M173.27 187.55a144.4 144.4 0 0116.09 4.86c-13.99 13.78-33.32 21.57-53.97 19.93-22.6-1.87-41.78-14.52-53.17-32.86 4-.2 8.93-.42 15.04-.4-.57.25-1.15.58-1.63.92a6.73 6.73 0 00-1.88 1.72c-.6.61-.92 1.33-1.07 2.16-.4 4.69 11.6 8.28 27.92 11.02 3.85.63 7.5 1.34 11.75 1.7l.28.03c20 1.6 33 .05 36.82-4.5.4-.53 1.34-.66 1.47-1.3.02-.27 1.1-1.13 1.02-1.32-.22-.84 1.75-1.29 1.33-1.96z"/>
    <path fill="#2CC3CC" d="M93.57 181.62c.51-.7 1.2-1.22 1.88-1.73.58-.33 1.06-.57 1.63-.9 2.6-.02 5.47.08 8.52.19l-.02.37-.08 1.1c-.11 1.75-.14 3.5-.17 5.36 4.04 2.02 11.34 3.8 19.97 5.02l1.84.22c1.84.21 3.68.43 5.62.55 11.99.98 22.5.38 28.08-1.28.16-1.01.32-2.02.38-3.03.04-.46.16-.92.19-1.38.02-.37.05-.73.16-1.1a219 219 0 0111.61 2.53c.42.58.65 1.34.79 2.09.07.28.05.56.04.74a2.57 2.57 0 01-.86 1.8c-3.82 4.55-20.76 6.95-40.77 5.35l-.28-.02a168.2 168.2 0 01-12.14-1.45c-16.32-2.66-27.86-7.59-27.46-12.28.14-.73.48-1.54 1.07-2.15z"/>
    <path fill="#66ECF4" d="M166.22 159.7c-2.31-.14-4.71-.3-7.02-.36l-7.02-.38-7.03-.37c-2.3-.15-4.7-.4-7-.65a.63.63 0 00-.69.6c-.01.28.15.57.34.58 2.25.9 4.53 1.5 6.92 1.85 2.38.43 4.77.69 7.17.84 1.2.08 2.4.16 3.61.15l3.62-.04c2.41-.11 4.75-.33 7.18-.72.38-.07.69-.51.62-.89a.8.8 0 00-.7-.6z"/>
    <path fill="#FF597C" d="M135.23 183.94c1.9.77 3.9 1.27 6 1.6a45 45 0 0012.22.34c2.06-.23 4.12-.65 6.11-1.26.47-.15.69-.6.54-1.07a.8.8 0 00-.7-.6c-2.03-.23-4.06-.36-6-.5l-5.91-.3c-2.03-.13-3.98-.16-5.92-.2a43.87 43.87 0 00-6.03-.03c-.55.06-1.05.49-1 1.14.06.47.32.76.69.88z"/>
    <path fill="#2CC3CC" d="M137.87 135.62a5.6 5.6 0 003.64-.4 5.9 5.9 0 002.51-2.9c.44-1.07.89-2.15 1.15-3.34.13-.54.17-1.1.3-1.74.13-.64.07-1.1.2-1.74.14-.55.08-1.1.12-1.75-.05-.56.08-1.1-.06-1.76-.02-1.2-.22-2.33-.6-3.47a6.7 6.7 0 00-2.02-3.19 3.15 3.15 0 00-1.71-.76 5.58 5.58 0 00-1.76-.11c-.37-.03-.58.33-.6.6.08.29.16.48.43.59h.1c.45.13.9.25 1.35.46.36.21.71.52.97.81a6.1 6.1 0 011.05 2.38c.12.94.24 1.96.18 2.88.02 1.02-.05 2.04-.11 3.05-.07 1.1-.23 2.02-.39 3.03-.15.91-.4 1.91-.65 2.82l-.12.36-.1.28c-.1.08-.12.27-.12.27-.1.08-.1.17-.1.27l-.32.53c-.1.09-.1.18-.2.27-.1.08-.1.17-.2.26-.3.26-.68.42-1.06.58-.48.15-.85.22-1.32.28h-.1c-.37.06-.68.5-.6.88-.39.16-.22.45.14.56zM168.66 138.22c.64.13 1.2.17 1.85.12a6.3 6.3 0 001.88-.52 6.28 6.28 0 002.61-2.98c.44-1.08.9-2.25 1.16-3.44.13-.54.25-1.09.3-1.73.13-.55.07-1.11.2-1.75l.12-1.75c.04-.55-.02-1.11-.07-1.76-.01-1.2-.2-2.42-.6-3.56a6.53 6.53 0 00-2.1-3.28 4.22 4.22 0 00-1.7-.86 5.6 5.6 0 00-1.75-.11c-.28-.02-.58.33-.6.6-.02.28.15.48.42.59h.1c.45.13.9.25 1.36.47.35.2.7.5.96.8a6.1 6.1 0 011.05 2.38c.12 1.03.24 1.96.17 2.98-.06 1-.04 2.03-.11 3.13s-.23 2.02-.39 3.03c-.16 1-.4 1.92-.65 2.83l-.12.36-.1.27c-.1.09-.12.27-.12.27l-.1.27-.32.53c-.1.1-.1.18-.2.27-.1.09-.1.18-.3.26-.3.26-.68.5-1.06.58-.47.15-.84.22-1.31.28h-.1c-.37.06-.67.41-.7.87-.4.44-.14.73.22.85z"/>
    <path fill="#2CC3CC" d="M99.7 174.45c.13-.55.62-.88 1.18-.75 1.57.29 3.16.48 4.83.69 1.58.2 3.26.3 4.95.42 1.68.1 3.27.12 4.95.23 1.12.08 2.25.06 3.37.13.14-2.03.18-4.07.32-6.2.17-2.58.43-5.16.9-7.82.36-2.67.9-5.23 1.63-7.78a31.08 31.08 0 013.13-7.5 17 17 0 015.66-6.12c2.44-1.51 5.3-2.16 8.09-1.79.65.05 1.3.18 1.95.32.65.13 1.3.18 1.94.4a17.21 17.21 0 017.1 3.44c.52.5 1.05 1 1.39 1.58l.09.1c.2-1.75.55-4.14.93-7 1.98-18.52 3.46-56.47-20-52.27-2.19.5-4.4 1.29-6.53 2.26 1.42-5.75 10.23-8.5 12.5-8.82 8.32-.84 14.01 2.41 17.77 7.95 8.82 12.83 7.92 37.74 6.53 51.57-.2 1.56-.3 3.04-.46 4.24a6.8 6.8 0 014.79-1.54l1.12.07c.74.15 1.38.37 2.12.6a7.7 7.7 0 011.8 1.24 4.2 4.2 0 011.28 1.85c.16.47-.06.92-.54 1.08a.8.8 0 01-.66-.05l-.18-.1c-.9-.43-1.92-.69-2.85-.84a3.56 3.56 0 00-1.4-.1c-.19 0-.47.07-.66.06-.19-.02-.47-.03-.66.04-.85.13-1.71.36-2.4.87-.88.5-1.58 1.2-2.2 1.99l-.1.08c-.1.09-.2.27-.4.26v.18c-6.84 1.22-10.27-.87-10.27-.87l.01-.18-.08-.1a7 7 0 00-.94-1.36c-.35-.4-.8-.8-1.34-1.11-.99-.62-1.99-1.15-3.08-1.6-1.1-.35-2.2-.7-3.42-.87-.55-.13-1.11-.17-1.76-.3-.55-.13-1.21-.09-1.77-.12a9.46 9.46 0 00-6.12 1.73 12.6 12.6 0 00-4.28 5.1 30.62 30.62 0 00-2.6 6.7 99.2 99.2 0 00-2.66 14.66l-.8 7.66v.09a1.47 1.47 0 01-1.59 1.38l-5.04-.34c-1.68-.1-3.36-.31-5.04-.42-1.68-.2-3.35-.41-5.02-.7-1.67-.3-3.33-.7-5-1.08a1.5 1.5 0 01-.48-1.24zM100.38 199.21c-6.32-6.71-11.39-11.4-14.36-14.18a62.47 62.47 0 01-5.14-7.75c.07-1.1.52-2.27 1.24-3.25a5.51 5.51 0 017.94-.95c.52.5 13.44 11.16 30.55 31.36 1.8 2.15 3.52 4.3 5.32 6.46a67.23 67.23 0 01-25.55-11.69z"/>
    <path fill="#66ECF4" d="M85.9 178.63l1.39 1.3c.44.4 1.08.44 1.48 0 .4-.43.44-1.08.01-1.57-.09 0-.08-.1-.08-.1l-.09-.1-1.5-1.2c-.44-.31-1-.25-1.4.18v.1c-.31.44-.26 1 .18 1.4zM95.04 187.47l2.52 2.58c.51.59 1.44.56 2.03.04.6-.6.57-1.54.04-2.03l-.08-.1-2.62-2.49a1.32 1.32 0 00-1.86.06 1.34 1.34 0 00-.03 1.94zM104.9 198.03l2.43 2.66c.6.69 1.62.75 2.3.15.7-.6.77-1.7.16-2.4l-.08-.1h-.1l-2.5-2.66c-.62-.6-1.64-.57-2.33.03-.42.71-.39 1.73.13 2.32z"/>
    <path fill="#FF597C" d="M137.41 125.7a3.43 3.43 0 01-.39-1.05 5.48 5.48 0 01-.1-1.21c.12-.55.34-1.09.65-1.53.1-.09.2-.27.3-.35h.1l.1-.08c.28-.17.3-.54.15-.92-.25-.48-.39-1.13-.17-1.67.02-.37.42-.72.79-.7l.09.01v-.09c.56.04 1.16.73 1.74 1.88l.08.1v.08c.4.96.32 2.06-.38 2.85a.97.97 0 00-.08 1.2c0 .09.09.1.08.19.17.29.24.66.31.94.07.38.04.75-.07 1.1-.13.55-.35 1-.74 1.35 0 .09-.1.08-.1.18-.2.26-.69.5-.45 1.17.08.1.08.19.07.28.09.1.08.2.08.28.15.48.12.94-.09 1.3-.1.17-.3.34-.48.33h-.1c-.55-.04-1.86-1.33-2.03-2.91v-.1c.05-.73.19-1.37.6-2 .1-.08.21-.35.04-.64zM168.3 128.2a3.43 3.43 0 01-.4-1.04 5.36 5.36 0 01-.1-1.21c.13-.55.35-1.1.66-1.53.1-.09.2-.27.3-.35h.1l.1-.08c.28-.17.3-.54.15-.92-.25-.48-.4-1.13-.17-1.67.02-.37.42-.72.79-.7l.09.01v-.09c.56.04 1.16.72 1.74 1.87 0 0-.01.1.08.1v.1c.4.95.32 2.05-.38 2.84a.97.97 0 00-.08 1.2c0 .09.09.1.08.19.17.28.24.66.31.94.07.38-.05.74-.07 1.1-.13.55-.35 1-.74 1.35 0 .09-.1.08-.1.18-.3.25-.69.5-.45 1.17.08.1.08.19.07.28.09.1.08.2.07.28.16.48.13.94-.08 1.3-.1.17-.3.34-.49.33h-.09c-.55-.04-1.86-1.33-2.03-2.92v-.09c.05-.74.19-1.37.6-2 0-.09.12-.36.04-.64z"/>
    <path fill="#66ECF4" d="M119.38 209.07a49.9 49.9 0 01-5.15-2c.1-.27.22-.54.42-.72.69-.69 1.89-.61 2.5.08l2.23 2.64zM211.63 47.88l-3.44 5.79a.7.7 0 01-.68.41l-6.51.4c-.66.06-.99.87-.65 1.35l4.2 5.28c.16.2.24.48.13.75l-1.74 6.64a.87.87 0 001.14 1l5.92-2.57c.28-.08.56-.06.83.05l5.32 3.69c.53.4 1.3-.01 1.25-.75l-.48-6.8c.02-.27.13-.54.33-.71l5.1-4.38c.5-.43.37-1.27-.36-1.41L215.7 55c-.27-.11-.44-.3-.61-.5l-2.28-6.26c.06-.83-.87-.9-1.18-.36z"/>
    <path fill="#FF597C" d="M102.94 143.35c1.71 11.87-2.39 22.05-13.28 25.77l-.66.24a229.78 229.78 0 00-17.19 6.54 142.4 142.4 0 00-15.7 7.93c-9.91 5.73-18.41 12.47-24.73 19.83a57.88 57.88 0 00-12.35 23.05 50.22 50.22 0 00-1.32 7.31s-3.07 29.5-3.7 43.15a39.68 39.68 0 01-28.44 20.14 39.69 39.69 0 01-46-40.61l.1-2.86c.43-9.23 1.6-18.68 3.88-27.87a125.97 125.97 0 019.84-27.01 125.03 125.03 0 0135.41-42.72c14.05-10.9 29.36-18.4 44.42-23.7a213.85 213.85 0 0122.65-6.55c7.52-1.72 15-2.98 22.39-4.07 13.55-1.97 22.79 8.08 24.68 21.43zm-71.29 4.54c-1-1.55-2.2-3.02-3.6-4.22a15.8 15.8 0 00-4.61-3.17c-.36-.12-.73-.15-1.03.11-.39.35-.43.9-.09 1.38l.09.1c1.12 1.28 2.24 2.56 3.26 3.92a44.95 44.95 0 012.97 4.08c.5.68.82 1.44 1.34 2.13.4.76.83 1.44 1.24 2.2.83 1.45 1.47 2.97 2.2 4.6l-.01.08c.16.3.51.6.89.53.56-.06.96-.5.9-.96-.07-1.86-.4-3.73-1.03-5.53-.21-.94-.72-1.71-1.03-2.56-.48-1.15-.89-2-1.49-2.7zm8.32-5.37a8.34 8.34 0 00-1.73-1.88c-.7-.5-1.42-.92-2.33-1.17a1.16 1.16 0 00-.56.06c-.48.24-.8.78-.55 1.26l.08.19c.24.66.66 1.24 1 1.82.33.58.66 1.15 1.09 1.64l1.1 1.56c.43.49.76 1.07 1.28 1.66l.08.1c.18.2.35.3.54.3.54.14 1.12-.2 1.16-.75.38-1.64-.24-3.34-1.16-4.8zm29.44-15.63c-6.72 2.33-7.32 5.8-5.3 11.49 2.04 5.69 5.73 11.39 12.46 9.06 6.82-2.33 9.28-8.82 7.34-14.5-1.93-5.78-7.67-8.47-14.5-6.05z"/>
    <path fill="#FFACBE" d="M69.41 126.89c-6.72 2.33-7.32 5.8-5.3 11.49 1.95 5.68 5.73 11.39 12.46 9.06 6.82-2.33 9.28-8.82 7.34-14.5-1.93-5.78-7.67-8.47-14.5-6.05zM23.54 140.41c-.36-.12-.73-.14-1.03.12-.4.34-.43.9-.09 1.38l.09.1a66.32 66.32 0 013.25 3.91 44.81 44.81 0 012.97 4.09c.51.68.83 1.44 1.34 2.12.42.77.83 1.44 1.25 2.21.83 1.44 1.46 2.97 2.19 4.59v.09c.16.29.51.59.89.52.55-.05.95-.5.9-.96-.07-1.85-.4-3.73-1.03-5.52-.22-.94-.72-1.72-1.03-2.57-.41-.86-.91-1.63-1.42-2.4-1-1.55-2.2-3.02-3.6-4.22a15.75 15.75 0 00-4.68-3.46zM35.9 139.56a1.16 1.16 0 00-.56.06c-.47.25-.79.78-.54 1.26l.08.19c.23.66.66 1.25.99 1.82.33.58.66 1.16 1.1 1.65l1.1 1.55c.42.5.76 1.07 1.27 1.66l.09.1c.17.2.35.3.53.3.55.14 1.13-.2 1.16-.75.4-1.73-.23-3.53-1.15-4.88a8.34 8.34 0 00-1.73-1.88 5.68 5.68 0 00-2.34-1.08z"/>
    <path fill="#FF597C" d="M301.96 155.42a26.65 26.65 0 01-11.08 36 22.25 22.25 0 01-3.72 1.6 106.1 106.1 0 015.3 12.1 26.67 26.67 0 01-10.6 31.5c-1.64 1.1-3.46 2-5.36 2.7a78.84 78.84 0 00-6.5-10.7 61.01 61.01 0 00-10.04-10.66 56.5 56.5 0 00-12.43-7.85 59.13 59.13 0 00-13.97-4.35c-9.6-1.75-19.44-1.29-28.9.3a.96.96 0 00-.8 1.06c.05.56.5.87 1.05.81 9.41-.95 18.85-.88 27.98 1.02a56.15 56.15 0 0124.67 11.81c7.1 5.84 12.7 13.52 16.88 21.75a122.2 122.2 0 018.37 21.75 26.37 26.37 0 01-12.17 23.15 26.3 26.3 0 01-5.37 2.7 26.68 26.68 0 01-33.24-13.67 28.9 28.9 0 00-2-6.24c-.31-.76-.73-1.53-1.15-2.2-.41-.68-.92-1.45-1.43-2.14l-.77-.97-.86-.9c-.27-.2-.44-.4-.7-.6-1.73-1.87-3.67-3.29-6.04-3.82-5.2-1.17-14.64 1.62-25.75 12.82-10.4 10.42-24.93 8.9-35.35-1.5-10.41-10.4-12.92-25.66-2.51-36.07 12.9-13.02 27.35-21.78 41.89-26-4.43-3.07-8.2-7.67-10.8-13.2-6.14-13.36-2.9-27.21 10.45-33.36 13.08-5.98 26.55-8.14 39.4-6.46-.53-.4-.97-.71-1.32-1.01-12.02-8.57-9.97-24.25-1.4-36.27 3.47-4.86 7.4-8.3 11.7-10.23.16.38.6.68 1.07.53 2.35-.58 4.67-.7 6.88-.47 2.3.24 4.57.86 6.64 1.73 1.08.45 2.16.98 3.23 1.51l1.52.84c.54.32.98.63 1.51.94 2.04 1.34 3.99 2.76 6.01 4.28.36.21.82.24 1.12-.02 0 0 .1-.08.1-.17 10.49 9.3 20.18 22.24 28.49 37.96zm-117.68 80.3c-3.9-5.36-9.28-9.32-15.7-4.66-6.42 4.76-8.3 10.74-4.4 16.09 3.9 5.34 12.24 8.03 18.66 3.36 6.51-4.66 5.44-9.45 1.44-14.8zm27.25-20.04a11.7 11.7 0 00-2.91-2.23.9.9 0 00-.84.04c-.48.25-.7.79-.45 1.26l.08.1c.4.96 1 1.83 1.49 2.78.5.87.99 1.83 1.4 2.69.5.86.89 1.81 1.3 2.67.4.96.8 1.9 1.29 2.86l.08.1c.17.3.34.49.71.51.55.13 1.03-.2 1.16-.75a10.58 10.58 0 00-1.1-7.01 17.87 17.87 0 00-2.22-3.02zm5-4.3c-.4.35-.52.9-.27 1.28l.09.1c1.01 1.46 2.11 3.01 3.03 4.55 1 1.55 1.83 3.08 2.65 4.71.4.77.72 1.62 1.13 2.39.32.85.73 1.62 1.04 2.47.72 1.72 1.17 3.41 1.7 5.2l-.01.1c.16.38.42.58.8.6.55.04.94-.4.97-.86.14-2.02.08-3.97-.44-5.95-.2-1.03-.52-1.88-.82-2.92-.4-.95-.7-1.9-1.2-2.76-.9-1.82-2-3.47-3.29-4.94a18.55 18.55 0 00-4.45-4c-.18-.2-.64-.22-.93.04zm-3.75-48.26c-7.97.21-12.95 4.14-12.74 10.81.2 6.68 5.48 13.6 13.46 13.38 7.97-.2 9.75-4.72 9.54-11.4-.2-6.76-2.28-13-10.25-12.8zm42.37 18.53a24.2 24.2 0 00-.8-8.94 20.77 20.77 0 00-2.31-5.51c-.17-.29-.62-.5-1-.44-.55.06-.87.6-.8 1.06l-.01.1c.34 1.77.59 3.64.84 5.41.26 1.78.32 3.63.39 5.4.03.92-.03 1.75 0 2.68-.06.92-.02 1.76-.17 2.67-.13 1.84-.42 3.58-.64 5.42v.09c-.03.37.13.75.49.96.45.21 1.01.06 1.32-.38.94-1.7 1.72-3.58 2.13-5.6.43-.98.4-1.9.56-2.92zm22.67-5.53a62.75 62.75 0 00-10.55-9.86 60.53 60.53 0 00-12.57-7.12 46.14 46.14 0 00-13.92-3.6.9.9 0 00-.97.67.96.96 0 00.66 1.16 65.7 65.7 0 0112.92 4.74 76.53 76.53 0 0111.74 7.16 74 74 0 0118.76 19.93c.26.39.7.6 1.19.36.47-.16.7-.79.54-1.26a46.3 46.3 0 00-7.8-12.18zm-9.48-35.69c4.84-4.58 8-10.39 2.46-16.21-5.54-5.74-11.76-6.89-16.51-2.2-4.76 4.67-6.34 13.27-.9 19 5.46 5.72 10.1 4 14.95-.59zm23.83 14.62a1 1 0 00-1.38-.09l-.2.17c-.49.43-.8.97-1.1 1.41-.31.44-.62.89-.84 1.33-.21.45-.52.9-.74 1.44-.22.54-.43.98-.66 1.62l-.01.18-.03.46c.15.57.67.97 1.24.82a5.24 5.24 0 003.41-2.64c.32-.63.65-1.34.79-2.07a4.6 4.6 0 00-.13-2.23c-.18-.1-.26-.3-.35-.4zm-6.27-12.81c-.45-.21-1.02.02-1.25.57v.09l-1.44 3.6c-.45 1.18-1 2.34-1.53 3.51a38.1 38.1 0 01-1.7 3.31c-.63 1.07-1.35 2.13-1.98 3.3v.09c-.11.27-.14.63.03.92.24.48.88.62 1.27.37a12.32 12.32 0 003.33-2.84c1-1.13 1.74-2.38 2.37-3.63.65-1.35 1.1-2.7 1.3-4.17.28-1.47.37-2.85.1-4.35.12-.36-.14-.65-.5-.77z"/>
    <path fill="#FFACBE" d="M168.58 231.06c-6.42 4.76-8.3 10.74-4.4 16.09 3.9 5.35 12.24 8.03 18.66 3.36 6.42-4.66 5.35-9.45 1.44-14.8-3.9-5.34-9.28-9.31-15.7-4.65zM212.78 163.12c-7.97.21-12.95 4.14-12.74 10.81.2 6.68 5.48 13.6 13.46 13.38 7.97-.2 9.75-4.72 9.54-11.39-.2-6.77-2.28-13.01-10.25-12.8zM270.8 124.31c-5.55-5.73-11.77-6.89-16.52-2.2-4.84 4.58-6.34 13.27-.89 19 5.55 5.73 10.1 4.09 14.85-.6 4.75-4.67 8.1-10.47 2.55-16.2zM269.9 228.61a61.01 61.01 0 00-10.03-10.65 56.5 56.5 0 00-12.44-7.86 59.13 59.13 0 00-13.96-4.35c-9.6-1.74-19.44-1.28-28.9.31a.96.96 0 00-.8 1.06c.05.56.5.86 1.05.8 9.41-.94 18.85-.87 27.97 1.03a56.15 56.15 0 0124.67 11.8c7.12 5.85 12.72 13.53 16.89 21.76 3.52 6.9 6.19 14.2 8.37 21.74.45 1.6.9 3.11 1.26 4.71a1 1 0 001.06.72c.47-.06.88-.6.72-1.06-1.68-9.46-4.3-18.8-8.54-27.5-.33-.57-.57-1.23-.9-1.81a58.24 58.24 0 00-6.42-10.7zM267.27 166.27a60.53 60.53 0 00-12.57-7.13 46.14 46.14 0 00-13.92-3.6.9.9 0 00-.97.67.96.96 0 00.66 1.16 65.7 65.7 0 0112.92 4.74 76.45 76.45 0 0111.74 7.16 74 74 0 0118.76 19.93c.26.39.7.6 1.19.36.47-.16.7-.79.54-1.26a47.78 47.78 0 00-7.6-12.26 70.83 70.83 0 00-10.75-9.77zM246.47 108.73a22.5 22.5 0 016.97-.56c2.3.25 4.57.86 6.65 1.74 1.08.44 2.15.97 3.23 1.5l1.52.85c.53.31.97.62 1.5.93 2.05 1.34 3.99 2.76 6.02 4.28.35.21.81.24 1.1-.02.1.01.1-.08.11-.17.3-.35.33-.81.08-1.2a34.61 34.61 0 00-5.36-5.63 27.13 27.13 0 00-6.86-4.06c-2.53-1-5.17-1.64-7.94-1.64-2.69 0-5.5.66-7.82 2.08-.38.16-.5.6-.44.98 0 .1.09.1.09.1.22.76.67.97 1.15.82z"/>
    <path fill="#FFACBE" d="M216.26 212.66c1.1 1.56 2.1 3.1 3.12 4.65 1 1.55 1.83 3.08 2.65 4.71.4.77.72 1.62 1.13 2.39.32.85.73 1.62 1.04 2.47.72 1.72 1.17 3.41 1.7 5.2l-.01.1c.16.38.42.58.8.6.55.04.94-.4.97-.86a18.3 18.3 0 00-.44-5.95c-.2-1.03-.52-1.88-.82-2.92-.4-.95-.7-1.9-1.2-2.76-.9-1.82-2-3.47-3.29-4.94a18.57 18.57 0 00-4.45-4c-.36-.2-.73-.23-1.02.03-.4.34-.43.9-.18 1.28zM208.61 213.54a.9.9 0 00-.83.04c-.48.25-.7.79-.46 1.27l.09.1c.4.95.99 1.82 1.48 2.78.5.86 1 1.82 1.4 2.68.5.87.9 1.82 1.3 2.68.4.95.8 1.9 1.3 2.86l.08.1c.16.28.34.48.7.5.55.13 1.04-.2 1.17-.75a10.56 10.56 0 00-1.1-7.01 13.24 13.24 0 00-2.04-2.91 10.3 10.3 0 00-3.09-2.34zM255.26 178.6c-.05-2.03-.38-4-.9-5.88a20.77 20.77 0 00-2.33-5.52c-.16-.29-.61-.5-.99-.44-.55.06-.87.6-.8 1.06l-.01.1c.34 1.77.59 3.64.84 5.42.26 1.77.32 3.62.39 5.39.03.92-.03 1.75 0 2.68-.06.92-.02 1.76-.17 2.67-.13 1.84-.42 3.58-.64 5.42v.09c-.03.37.13.75.49.96.45.21 1.01.06 1.32-.38.94-1.7 1.72-3.58 2.13-5.6.25-1 .31-2 .47-2.92.16-1 .22-2.02.2-3.04zM228.88 268c-.41-.68-.92-1.45-1.43-2.13l-.77-.98-.86-.9c-.27-.2-.44-.4-.7-.6-.44-.3-.88-.7-1.42-1.01a.88.88 0 00-1.12.2c-.4.35-.34 1 0 1.3l.1.1c.43.4.94 1.08 1.37 1.57l.59.87.58.96a22.2 22.2 0 011.77 4 39.22 39.22 0 012.01 8.83l.2 1.13.12 1.12.21 2.32c.08 1.58.08 3.06.16 4.64l-.03 4.62c-.1 1.57-.12 3.14-.13 4.71v.1c-.03.46.32.76.68.88a.96.96 0 001.15-.67c.38-1.55.67-3.1 1.06-4.74.29-1.55.4-3.21.6-4.77.1-1.66.11-3.23.13-4.9l-.12-2.41-.1-1.21-.2-1.21c-.11-1.12-.31-2.25-.52-3.37a28.78 28.78 0 00-2-6.24c-.5-.77-1-1.45-1.33-2.21z"/>
  </g>
</svg>
